<svg xmlns="http://www.w3.org/2000/svg" version="1.1" xmlns:xlink="http://www.w3.org/1999/xlink"
    xmlns:svgjs="http://svgjs.dev/svgjs" class="pattern" viewBox="0 0 400 400">
    <g class="shape-0">
        <rect width="100" height="100" fill="#939473" x="0" y="0"></rect>
        <path d="M 0 0 L 100 0 L 100 100 Z"
            transform="matrix(-1,-1.2246467991473532e-16,1.2246467991473532e-16,-1,100,100)"
            fill="#13444d"></path>
    </g>
    <g class="shape-1">
        <rect width="100" height="100" fill="#939473" x="0" y="100"></rect>
        <circle r="25" cx="50" cy="150" fill="#4f784e"></circle>
    </g>
    <g class="shape-2">
        <rect width="100" height="100" fill="#939473" x="0" y="200"></rect>
        <circle r="25" cx="50" cy="250" fill="#13444d"></circle>
    </g>
    <g class="shape-3">
        <rect width="100" height="100" fill="#2d5e4c" x="0" y="300"></rect>
        <path d="M 0 300 L 100 300 L 100 400 Z"
            transform="matrix(-1,-1.2246467991473532e-16,1.2246467991473532e-16,-1,99.99999999999996,700)"
            fill="#252326"></path>
    </g>
    <g class="shape-4">
        <rect width="100" height="100" fill="#2d5e4c" x="100" y="0"></rect>
        <circle r="25" cx="150" cy="50" fill="#4f784e"></circle>
    </g>
    <g class="shape-5">
        <rect width="100" height="100" fill="#13444d" x="100" y="100"></rect>
        <path d="M100 100L150 100A50 50 0 0 1 100 150Z " fill="#939473"></path>
        <path d="M50 50L100 50A50 50 0 0 1 50 100Z "
            transform="matrix(-1,1.2246467991473532e-16,-1.2246467991473532e-16,-1,250,250)"
            fill="#939473"></path>
    </g>
    <g class="shape-6">
        <rect width="100" height="100" fill="#939473" x="100" y="200"></rect>
        <path d="M 100 200 L 200 200 L 200 300 Z"
            transform="matrix(-1,-1.2246467991473532e-16,1.2246467991473532e-16,-1,300,500)"
            fill="#13444d"></path>
    </g>
    <g class="shape-7">
        <rect width="100" height="100" fill="#2d5e4c" x="100" y="300"></rect>
        <path d="M 100 300 L 200 300 L 200 400 Z"
            transform="matrix(-1,-1.2246467991473532e-16,1.2246467991473532e-16,-1,299.99999999999994,700)"
            fill="#939473"></path>
    </g>
    <g class="shape-8">
        <rect width="100" height="100" fill="#4f784e" x="200" y="0"></rect>
        <circle r="25" cx="250" cy="50" fill="#13444d"></circle>
    </g>
    <g class="shape-9">
        <rect width="100" height="100" fill="#4f784e" x="200" y="100"></rect>
        <circle r="25" cx="250" cy="150" fill="#939473"></circle>
    </g>
    <g class="shape-10">
        <rect width="100" height="100" fill="#939473" x="200" y="200"></rect>
        <path d="M200 200L250 200A50 50 0 0 1 200 250Z " fill="#4f784e"></path>
        <path d="M150 150L200 150A50 50 0 0 1 150 200Z "
            transform="matrix(-1,1.2246467991473532e-16,-1.2246467991473532e-16,-1,450,450)"
            fill="#4f784e"></path>
    </g>
    <g class="shape-11">
        <rect width="100" height="100" fill="#4f784e" x="200" y="300"></rect>
        <circle r="25" cx="250" cy="350" fill="#13444d"></circle>
    </g>
    <g class="shape-12">
        <rect width="100" height="100" fill="#2d5e4c" x="300" y="0"></rect>
        <path d="M 300 0 L 400 0 L 400 100 Z"
            transform="matrix(-1,-1.2246467991473532e-16,1.2246467991473532e-16,-1,700,100.00000000000004)"
            fill="#939473"></path>
    </g>
    <g class="shape-13">
        <rect width="100" height="100" fill="#4f784e" x="300" y="100"></rect>
        <circle r="25" cx="350" cy="150" fill="#939473"></circle>
    </g>
    <g class="shape-14">
        <rect width="100" height="100" fill="#4f784e" x="300" y="200"></rect>
        <path d="M 300 200 L 400 200 L 400 300 Z"
            transform="matrix(-1,-1.2246467991473532e-16,1.2246467991473532e-16,-1,700,500.00000000000006)"
            fill="#2d5e4c"></path>
    </g>
    <g class="shape-15">
        <rect width="100" height="100" fill="#4f784e" x="300" y="300"></rect>
        <path d="M 300 300 L 400 300 L 400 400 Z"
            transform="matrix(-1,-1.2246467991473532e-16,1.2246467991473532e-16,-1,700,700)"
            fill="#252326"></path>
    </g>
</svg>